name rise44.9368peak50.754fall52.0217.mot
datacolumns 19
datarows 26
range 21.58826000000000 21.62992000000000
endheader
time	ground_force1_vx	ground_force1_vy	ground_force1_vz	ground_force1_px	ground_force1_py	ground_force1_pz	ground_force2_vx	ground_force2_vy	ground_force2_vz	ground_force2_px	ground_force2_py	ground_force2_pz	ground_torque1_x	ground_torque1_y	ground_torque1_z	ground_torque2_x	ground_torque2_y	ground_torque2_z	
21.58826000000000	-9.46273400000000	46.29995300000000	-12.06773100000000	0.33160100000000	0.00000000000000	0.09213500000000	-61.76074200000000	796.54519100000005	-61.11998900000000	0.16240100000000	0.00000000000000	-0.11453700000000	0.00000000000000	-8.87417000000000	0.00000000000000	0.00000000000000	-31.61379900000000	0.00000000000000	
21.58992300000000	-10.17874800000000	53.12991700000000	-13.33700700000000	0.33718100000000	0.00000000000000	0.09276300000000	-62.27196600000000	794.48816299999999	-60.67748400000000	0.16151400000000	0.00000000000000	-0.11448800000000	0.00000000000000	-9.91121200000000	0.00000000000000	0.00000000000000	-31.48930700000000	0.00000000000000	
21.59158500000000	-10.71924400000000	59.94139600000000	-14.46912300000000	0.34242200000000	0.00000000000000	0.09333200000000	-62.78123800000000	792.31851700000004	-60.21752500000000	0.16064500000000	0.00000000000000	-0.11443500000000	0.00000000000000	-10.86500700000000	0.00000000000000	0.00000000000000	-31.36311700000000	0.00000000000000	
21.59325500000000	-11.07027000000000	66.66654699999999	-15.44497600000000	0.34737100000000	0.00000000000000	0.09385200000000	-63.28868200000000	790.03413799999998	-59.74028300000000	0.15979500000000	0.00000000000000	-0.11437700000000	0.00000000000000	-11.71928000000000	0.00000000000000	0.00000000000000	-31.23538600000000	0.00000000000000	
21.59492500000000	-11.22701900000000	73.26150100000000	-16.25478300000000	0.35206400000000	0.00000000000000	0.09433000000000	-63.79440000000000	787.63287900000000	-59.24593400000000	0.15896500000000	0.00000000000000	-0.11431400000000	0.00000000000000	-12.46448100000000	0.00000000000000	0.00000000000000	-31.10625900000000	0.00000000000000	
21.59659000000000	-11.19299400000000	79.70610800000000	-16.89747000000000	0.35653100000000	0.00000000000000	0.09477200000000	-64.29846900000000	785.11257300000000	-58.73466300000000	0.15815600000000	0.00000000000000	-0.11424700000000	0.00000000000000	-13.09752300000000	0.00000000000000	0.00000000000000	-30.97586900000000	0.00000000000000	
21.59825500000000	-10.97863700000000	86.00177200000000	-17.37944900000000	0.36079600000000	0.00000000000000	0.09518100000000	-64.80094099999999	782.47103600000003	-58.20665800000000	0.15736900000000	0.00000000000000	-0.11417500000000	0.00000000000000	-13.62103800000000	0.00000000000000	0.00000000000000	-30.84433800000000	0.00000000000000	
21.59992400000000	-10.59962600000000	92.16788400000000	-17.71299300000000	0.36488100000000	0.00000000000000	0.09556300000000	-65.30183700000001	779.70607199999995	-57.66211500000000	0.15660500000000	0.00000000000000	-0.11409800000000	0.00000000000000	-14.04227500000000	0.00000000000000	0.00000000000000	-30.71177200000000	0.00000000000000	
21.60158500000000	-10.07503700000000	98.23740200000000	-17.91441100000000	0.36880200000000	0.00000000000000	0.09592100000000	-65.80114500000001	776.81548399999997	-57.10123400000000	0.15586500000000	0.00000000000000	-0.11401700000000	0.00000000000000	-14.37182100000000	0.00000000000000	0.00000000000000	-30.57826500000000	0.00000000000000	
21.60325700000000	-9.42554600000000	104.25208800000000	-18.00221900000000	0.37257400000000	0.00000000000000	0.09625800000000	-66.29881600000000	773.79707800000006	-56.52422100000000	0.15514800000000	0.00000000000000	-0.11393000000000	0.00000000000000	-14.62225200000000	0.00000000000000	0.00000000000000	-30.44389500000000	0.00000000000000	
21.60492000000000	-8.67182100000000	110.25784600000000	-17.99543900000000	0.37620800000000	0.00000000000000	0.09657600000000	-66.79475800000000	770.64867000000004	-55.93129000000000	0.15445600000000	0.00000000000000	-0.11383800000000	0.00000000000000	-14.80685800000000	0.00000000000000	0.00000000000000	-30.30872300000000	0.00000000000000	
21.60659200000000	-7.83317500000000	116.30051899999999	-17.91216000000000	0.37971500000000	0.00000000000000	0.09687600000000	-67.28883900000000	767.36809800000003	-55.32265700000000	0.15379000000000	0.00000000000000	-0.11374000000000	0.00000000000000	-14.93852400000000	0.00000000000000	0.00000000000000	-30.17279300000000	0.00000000000000	
21.60825400000000	-6.92657100000000	122.42240099999999	-17.76840800000000	0.38310300000000	0.00000000000000	0.09716200000000	-67.78087900000000	763.95322699999997	-54.69854600000000	0.15315000000000	0.00000000000000	-0.11363700000000	0.00000000000000	-15.02882700000000	0.00000000000000	0.00000000000000	-30.03613500000000	0.00000000000000	
21.60992400000000	-5.96596600000000	128.65959599999999	-17.57738100000000	0.38638000000000	0.00000000000000	0.09743400000000	-68.27064799999999	760.40195500000004	-54.05918700000000	0.15253700000000	0.00000000000000	-0.11352900000000	0.00000000000000	-15.08739000000000	0.00000000000000	0.00000000000000	-29.89875600000000	0.00000000000000	
21.61159300000000	-4.96200700000000	135.04029499999999	-17.34902200000000	0.38955100000000	0.00000000000000	0.09769300000000	-68.75786200000000	756.71222899999998	-53.40481600000000	0.15195000000000	0.00000000000000	-0.11341600000000	0.00000000000000	-15.12149600000000	0.00000000000000	0.00000000000000	-29.76064800000000	0.00000000000000	
21.61325500000000	-3.92202600000000	141.58391100000000	-17.08992300000000	0.39262200000000	0.00000000000000	0.09794200000000	-69.24218200000000	752.88204299999995	-52.73567500000000	0.15139100000000	0.00000000000000	-0.11329700000000	0.00000000000000	-15.13594500000000	0.00000000000000	0.00000000000000	-29.62178100000000	0.00000000000000	
21.61492100000000	-2.85028400000000	148.30100999999999	-16.80348500000000	0.39559800000000	0.00000000000000	0.09818000000000	-69.72321200000000	748.90945599999998	-52.05201500000000	0.15085900000000	0.00000000000000	-0.11317200000000	0.00000000000000	-15.13312200000000	0.00000000000000	0.00000000000000	-29.48210800000000	0.00000000000000	
21.61658900000000	-1.74839800000000	155.19387800000001	-16.49029900000000	0.39848200000000	0.00000000000000	0.09840900000000	-70.20049299999999	744.79259600000000	-51.35409200000000	0.15035600000000	0.00000000000000	-0.11304200000000	0.00000000000000	-15.11324400000000	0.00000000000000	0.00000000000000	-29.34156100000000	0.00000000000000	
21.61825400000000	-0.61589700000000	162.25757100000001	-16.14866100000000	0.40127700000000	0.00000000000000	0.09863000000000	-70.67350600000000	740.52966600000002	-50.64217400000000	0.14988000000000	0.00000000000000	-0.11290600000000	0.00000000000000	-15.07471500000000	0.00000000000000	0.00000000000000	-29.20005200000000	0.00000000000000	
21.61992300000000	0.54918200000000	169.48128199999999	-15.77516800000000	0.40398600000000	0.00000000000000	0.09884300000000	-71.14166400000001	736.11895900000002	-49.91653400000000	0.14943200000000	0.00000000000000	-0.11276400000000	0.00000000000000	-15.01456900000000	0.00000000000000	0.00000000000000	-29.05747200000000	0.00000000000000	
21.62158800000000	1.74968400000000	176.84986499999999	-15.36533000000000	0.40661100000000	0.00000000000000	0.09904800000000	-71.60431699999999	731.55885999999998	-49.17745800000000	0.14901300000000	0.00000000000000	-0.11261700000000	0.00000000000000	-14.92892400000000	0.00000000000000	0.00000000000000	-28.91369400000000	0.00000000000000	
21.62325400000000	2.98877500000000	184.34536900000001	-14.91415700000000	0.40915400000000	0.00000000000000	0.09924700000000	-72.06074500000000	726.84786099999997	-48.42524100000000	0.14862200000000	0.00000000000000	-0.11246400000000	0.00000000000000	-14.81344300000000	0.00000000000000	0.00000000000000	-28.76856900000000	0.00000000000000	
21.62491900000000	4.26946300000000	191.94847500000000	-14.41667300000000	0.41161600000000	0.00000000000000	0.09944000000000	-72.51016199999999	721.98456199999998	-47.66018900000000	0.14825800000000	0.00000000000000	-0.11230500000000	0.00000000000000	-14.66373100000000	0.00000000000000	0.00000000000000	-28.62193000000000	0.00000000000000	
21.62659200000000	5.59421100000000	199.63974800000000	-13.86834300000000	0.41399900000000	0.00000000000000	0.09962600000000	-72.95171000000001	716.96768899999995	-46.88262100000000	0.14792300000000	0.00000000000000	-0.11214100000000	0.00000000000000	-14.47568800000000	0.00000000000000	0.00000000000000	-28.47359000000000	0.00000000000000	
21.62825500000000	6.96466500000000	207.40064100000001	-13.26539100000000	0.41630400000000	0.00000000000000	0.09980800000000	-73.38446700000000	711.79609500000004	-46.09286800000000	0.14761500000000	0.00000000000000	-0.11197100000000	0.00000000000000	-14.24576700000000	0.00000000000000	0.00000000000000	-28.32334400000000	0.00000000000000	
21.62992000000000	8.38148300000000	215.21424200000001	-12.60500900000000	0.41853000000000	0.00000000000000	0.09998400000000	-73.80743900000000	706.46877400000005	-45.29127600000000	0.14733500000000	0.00000000000000	-0.11179500000000	0.00000000000000	-13.97115600000000	0.00000000000000	0.00000000000000	-28.17096700000000	0.00000000000000	
